<svg xmlns="http://www.w3.org/2000/svg" viewBox="0 0 64 64" role="img" aria-label="Grão de café RastroCoffee">
  <defs>
    <linearGradient id="bean" x1="10" y1="8" x2="54" y2="57" gradientUnits="userSpaceOnUse">
      <stop stop-color="#245846"/>
      <stop offset="1" stop-color="#12382D"/>
    </linearGradient>
  </defs>
  <path fill="url(#bean)" d="M34 2C49 3 59 15 60 30c1 16-8 29-22 32C22 65 8 55 5 40 1 24 10 10 24 4c4-2 7-2 10-2Z"/>
  <path d="M31 2c7 8 7 15-1 22-9 8-9 14-2 21 7 6 7 11-1 17" fill="none" stroke="#F6F1E8" stroke-width="5" stroke-linecap="round"/>
  <g fill="#183F32" stroke="#F6F1E8" stroke-width="4">
    <circle cx="34" cy="17" r="6"/>
    <circle cx="25" cy="34" r="6"/>
    <circle cx="31" cy="50" r="6"/>
  </g>
</svg>
